<svg xmlns="http://www.w3.org/2000/svg" xmlns:xlink="http://www.w3.org/1999/xlink" width="287" height="54" viewBox="0 0 287 54">
  <defs>
    <clipPath id="clip-Artboard_1">
      <rect width="287" height="54"/>
    </clipPath>
  </defs>
  <g id="Artboard_1" data-name="Artboard – 1" clip-path="url(#clip-Artboard_1)">
    <g id="Group_441" data-name="Group 441" transform="translate(-101.588 -423.211)">
      <g id="Group_436" data-name="Group 436" transform="translate(101.759 423.089)">
        <path id="Path_386" data-name="Path 386" d="M148.282,447.807l-17.958,3.845-3.846,17.959-3.846-17.959-17.958-3.845,17.958-3.847L126.478,426l3.846,17.957Z" transform="translate(-103.584 -424.913)" fill="#003784" fill-rule="evenodd"/>
        <path id="Path_387" data-name="Path 387" d="M141.08,475.491l-2.558-10.525L128,462.41l10.525-2.559,2.558-10.524,2.557,10.524,10.525,2.559-10.525,2.556Z" transform="translate(-118.186 -439.516)" fill="#e4001b" fill-rule="evenodd"/>
        <g id="Group_435" data-name="Group 435">
          <path id="Path_388" data-name="Path 388" d="M124.653,424.178a21.8,21.8,0,1,0,21.8,21.8,21.806,21.806,0,0,0-21.8-21.8m0-1.089a22.895,22.895,0,1,1-22.894,22.894,22.894,22.894,0,0,1,22.894-22.894" transform="translate(-101.759 -423.089)" fill="#003784" fill-rule="evenodd"/>
          <path id="Path_389" data-name="Path 389" d="M153.862,480.638l-1.28-4.172-4.169-1.277,4.169-1.279,1.28-4.172,1.28,4.172,4.172,1.279-4.172,1.277Z" transform="translate(-130.967 -452.295)" fill="#ffe900" fill-rule="evenodd"/>
          <path id="Path_390" data-name="Path 390" d="M285.241,463.989l5.438,8.314-.191-3.47v-4.844h4.783v15.235h-4.677l-5.438-8.295.189,3.47v4.825h-4.78V463.989Zm-16.925,15.235-5.206-15.235h5.036l2.665,10.134,2.774-10.134h5.036l-5.29,15.235Zm-6.625,0H248.975V463.989h12.418v3.553h-7.426v2.178h6.285v3.558h-6.285v2.392h7.724Z" transform="translate(-193.926 -448.695)" fill="#003784"/>
          <path id="Path_391" data-name="Path 391" d="M429.407,469.131h-4.741a2.321,2.321,0,0,0-.485-1.842,2.274,2.274,0,0,0-1.778-.657q-2.793,0-3.6,4.445a8.823,8.823,0,0,0-.168,1.568q0,2.583,2.454,2.58,2.222,0,3-2.58h4.8a8.435,8.435,0,0,1-8.381,6.305,7.2,7.2,0,0,1-5.046-1.64,5.858,5.858,0,0,1-1.788-4.54,11.04,11.04,0,0,1,.169-1.863,9.594,9.594,0,0,1,3.239-5.839,8.537,8.537,0,0,1,5.754-2.159,7.34,7.34,0,0,1,4.91,1.439,5.129,5.129,0,0,1,1.671,4.105q0,.338-.02.678m-26.449,9.417h-4.993l2.685-15.235h7.343a7.055,7.055,0,0,1,4.3,1.1,3.489,3.489,0,0,1,1.4,2.983,5.579,5.579,0,0,1-.105,1.057q-.932,5.353-7.28,5.354h-2.518Zm1.458-8.295h2.075a2.06,2.06,0,0,0,2.326-1.779,2.152,2.152,0,0,0,.024-.295q0-1.314-2.414-1.313h-1.419Zm-16.462-6.94,3.978,8.314.424-3.471.846-4.843h4.783L395.3,478.548H390.62l-3.976-8.295-.424,3.47-.847,4.825h-4.782l2.689-15.235Z" transform="translate(-276.327 -448.019)" fill="#e4001b"/>
        </g>
        <path id="Path_392" data-name="Path 392" d="M474.263,544v1.767h1.178a1.117,1.117,0,0,1-.521.674,1.57,1.57,0,0,1-.85.266q-1.711,0-1.711-2.209a3.351,3.351,0,0,1,.391-1.75,1.275,1.275,0,0,1,1.161-.64,1.3,1.3,0,0,1,1.37,1.031h2.538a3.38,3.38,0,0,0-1.314-2.266,4.182,4.182,0,0,0-2.549-.759,4.1,4.1,0,0,0-3.115,1.212,4.422,4.422,0,0,0-1.155,3.183,4.135,4.135,0,0,0,1.2,3.161,3.816,3.816,0,0,0,2.753,1.031,3.052,3.052,0,0,0,2.458-1l.1.8h1.722V544Zm-13.684-3.67v8.156h2.56V545.9l-.1-1.858,2.911,4.441h2.5V540.33h-2.56v2.594l.1,1.858-2.911-4.452Zm-6.038,5.381.827-2.923.861,2.923Zm2.209-5.381H454.03l-2.923,8.156h2.617l.306-1.076h2.662l.317,1.076h2.662Zm-1.711-2.039h-1.914l1.575,1.359h1.257ZM445,545.325h2.526v3.16H450.2V540.33h-2.674v2.753H445V540.33h-2.673v8.156H445Zm-12.325,0H435.2v3.16h2.674V540.33H435.2v2.753h-2.526V540.33H430v8.156h2.673Zm-5.047-4.344a4.412,4.412,0,0,0-2.894-.867,3.9,3.9,0,0,0-2.889,1.155A4.289,4.289,0,0,0,425,548.7a3.947,3.947,0,0,0,2.668-.9,3.677,3.677,0,0,0,1.229-2.475h-2.572q-.181,1.382-1.371,1.382a1.385,1.385,0,0,1-1.314-.68,3.2,3.2,0,0,1-.295-1.541q0-2.379,1.507-2.379a1.307,1.307,0,0,1,1.45,1.337h2.538A3.493,3.493,0,0,0,427.63,540.981Zm-12.478,4.729.827-2.923.861,2.923Zm2.209-5.381h-2.719l-2.923,8.156h2.617l.306-1.076H417.3l.317,1.076h2.662Zm-1.156-2.005-.917,1.36h1.257l1.563-1.36Zm-10.592,7h2.526v3.16h2.673V540.33H408.14v2.753h-2.526V540.33H402.94v8.156h2.674Zm-9.369,3.16V545.9l.635-.669,1.96,3.251h3.206l-3.3-5.086,2.98-3.07H398.59l-2.345,2.639V540.33h-2.673v8.156Zm-8-7.5a4.413,4.413,0,0,0-2.895-.867,3.9,3.9,0,0,0-2.889,1.155,4.289,4.289,0,0,0,3.149,7.432,3.946,3.946,0,0,0,2.668-.9,3.678,3.678,0,0,0,1.229-2.475h-2.572q-.181,1.382-1.37,1.382a1.385,1.385,0,0,1-1.314-.68,3.2,3.2,0,0,1-.295-1.541q0-2.379,1.507-2.379a1.307,1.307,0,0,1,1.45,1.337h2.538A3.494,3.494,0,0,0,388.242,540.981ZM376.67,538.12l-.918,1.359h1.257l1.563-1.359ZM373.2,541.27a4.1,4.1,0,0,0-1.178,3.07,4.323,4.323,0,0,0,1.178,3.217,4.3,4.3,0,0,0,7.375-3.195,4.24,4.24,0,0,0-1.053-2.934,4.1,4.1,0,0,0-3.229-1.314A4.228,4.228,0,0,0,373.2,541.27Zm4.328,1.541a2.936,2.936,0,0,1,.374,1.552q0,2.345-1.609,2.345a1.351,1.351,0,0,1-1.28-.782,3.387,3.387,0,0,1-.317-1.563,3.071,3.071,0,0,1,.329-1.507,1.444,1.444,0,0,1,2.5-.045Zm-7.511-1.937a3.849,3.849,0,0,0-2.526-.759,4.336,4.336,0,0,0-2.526.657,2.227,2.227,0,0,0-1.008,1.949,2.165,2.165,0,0,0,1.212,2.016,11.217,11.217,0,0,0,2.266.725q1.212.3,1.212.759,0,.6-1.11.6a1.408,1.408,0,0,1-.759-.2.934.934,0,0,1-.442-.645h-2.56a2.484,2.484,0,0,0,1.019,1.914,4.021,4.021,0,0,0,2.594.816,4.806,4.806,0,0,0,2.753-.691,2.437,2.437,0,0,0,1.065-2.119A2.091,2.091,0,0,0,370,543.955a12.759,12.759,0,0,0-2.266-.725q-1.213-.306-1.212-.77t.85-.464a1.486,1.486,0,0,1,.691.147.7.7,0,0,1,.385.555h2.538A2.761,2.761,0,0,0,370.02,540.873ZM352.9,545.722l-.056-1.269-.113-1.2h.023l1.484,5.234H356.1l1.484-5.234h.023l-.136,1.473-.034,1.269v2.492h2.4V540.33h-3.229l-1.439,5.086-1.439-5.086H350.5v8.156h2.4Zm-7.476-6.14a2,2,0,0,0,1.24-.379,1.385,1.385,0,0,0,.538-1.1h-.759q-.1.6-.952.6-.962,0-1.042-.6h-.77A1.51,1.51,0,0,0,345.426,539.582Zm-1.371,7.828h2.662l.317,1.076H349.7l-2.923-8.156h-2.719l-2.923,8.156h2.617Zm.51-1.7.827-2.923.861,2.923Zm-9.538-.385h2.526v3.16h2.674V540.33h-2.674v2.753h-2.526V540.33h-2.673v8.156h2.673Zm-5.047-4.344a4.413,4.413,0,0,0-2.895-.867,3.9,3.9,0,0,0-2.889,1.155,4.289,4.289,0,0,0,3.149,7.432,3.948,3.948,0,0,0,2.668-.9,3.681,3.681,0,0,0,1.229-2.475h-2.572q-.182,1.382-1.371,1.382a1.385,1.385,0,0,1-1.314-.68,3.2,3.2,0,0,1-.295-1.541q0-2.379,1.507-2.379a1.307,1.307,0,0,1,1.45,1.337h2.538A3.493,3.493,0,0,0,329.98,540.981Zm-17.723,4.741-.056-1.269-.113-1.2h.022l1.484,5.234h1.858l1.484-5.234h.022l-.136,1.473-.034,1.269v2.492h2.4V540.33h-3.229l-1.439,5.086-1.439-5.086h-3.229v8.156h2.4Zm-8.043-6,.51-.782.555.759h1.507l-1.246-1.507-1.586.011-1.235,1.518Zm-.8,7.692h2.662l.317,1.076h2.662l-2.923-8.156H303.41l-2.923,8.156H303.1Zm.51-1.7.827-2.923.861,2.923Zm-8.983-3.24v6.015h2.674V542.47h2.4V540.33h-7.477v2.141ZM284.888,544v1.767h1.178a1.117,1.117,0,0,1-.521.674,1.568,1.568,0,0,1-.85.266q-1.711,0-1.71-2.209a3.347,3.347,0,0,1,.391-1.75,1.275,1.275,0,0,1,1.161-.64,1.3,1.3,0,0,1,1.371,1.031h2.538a3.381,3.381,0,0,0-1.314-2.266,4.182,4.182,0,0,0-2.549-.759,4.1,4.1,0,0,0-3.115,1.212,4.422,4.422,0,0,0-1.155,3.183,4.135,4.135,0,0,0,1.2,3.161,3.817,3.817,0,0,0,2.753,1.031,3.051,3.051,0,0,0,2.458-1l.1.8h1.722V544ZM271.2,540.33v8.156h2.56V545.9l-.1-1.858,2.911,4.441h2.5V540.33h-2.56v2.594l.1,1.858-2.911-4.452Zm-8.405,7.533a4.28,4.28,0,0,0,2.911.838,4.19,4.19,0,0,0,2.979-.9,3.808,3.808,0,0,0,.94-2.86V540.33h-2.673v4.882q0,1.5-1.246,1.5a1.159,1.159,0,0,1-1.042-.442,2.014,2.014,0,0,1-.215-1.053V540.33h-2.674v4.6A3.723,3.723,0,0,0,262.8,547.863Zm-5.268-1.915a1.729,1.729,0,0,1,.249,1.11,4.831,4.831,0,0,0,.136,1.427h2.708v-.249q-.215,0-.261-.318-.023-.158-.022-1.11a2.582,2.582,0,0,0-.363-1.575,2.426,2.426,0,0,0-1.019-.589,1.821,1.821,0,0,0,1.37-1.994,1.971,1.971,0,0,0-.782-1.756,5.273,5.273,0,0,0-2.832-.566h-3.852v8.156h2.673v-2.843h.816A1.635,1.635,0,0,1,257.53,545.948Zm-.747-3.716q1.076,0,1.076.85,0,.771-1.269.77h-1.054v-1.62Zm-10.037.238v6.015h2.673V542.47h2.4V540.33h-7.477v2.141Z" transform="translate(-191.027 -495.092)" fill="#003784"/>
      </g>
    </g>
  </g>
</svg>
